<svg width="35" height="29" viewBox="0 0 35 29" fill="none" xmlns="http://www.w3.org/2000/svg">
<path d="M9.37129 0.236915C9.29646 0.161821 9.20754 0.102238 9.10963 0.061583C9.01172 0.0209277 8.90674 0 8.80073 0C8.69471 0 8.58974 0.0209277 8.49183 0.061583C8.39392 0.102238 8.305 0.161821 8.23017 0.236915L3.95564 4.4866L2.4319 3.0018C2.35707 2.9267 2.26815 2.86712 2.17024 2.82646C2.07233 2.78581 1.96736 2.76488 1.86134 2.76488C1.75533 2.76488 1.65035 2.78581 1.55244 2.82646C1.45453 2.86712 1.36561 2.9267 1.29078 3.0018L0.236915 4.057C0.161821 4.13184 0.102238 4.22076 0.0615829 4.31867C0.0209277 4.41658 0 4.52155 0 4.62757C0 4.73358 0.0209277 4.83855 0.0615829 4.93646C0.102238 5.03437 0.161821 5.12329 0.236915 5.19813L3.4314 8.37986C3.59085 8.53143 3.80244 8.61594 4.02243 8.61594C4.24243 8.61594 4.45402 8.53143 4.61347 8.37986L5.65995 7.33136L10.5064 2.4856C10.6574 2.33448 10.7427 2.12991 10.7438 1.91628C10.745 1.70265 10.6618 1.49719 10.5124 1.34448L9.37129 0.236915ZM9.37129 10.9226C9.29646 10.8475 9.20754 10.7879 9.10963 10.7472C9.01172 10.7066 8.90674 10.6856 8.80073 10.6856C8.69471 10.6856 8.58974 10.7066 8.49183 10.7472C8.39392 10.7879 8.305 10.8475 8.23017 10.9226L3.95564 15.1998L2.4319 13.7163C2.35707 13.6412 2.26815 13.5816 2.17024 13.541C2.07233 13.5003 1.96736 13.4794 1.86134 13.4794C1.75533 13.4794 1.65035 13.5003 1.55244 13.541C1.45453 13.5816 1.36561 13.6412 1.29078 13.7163L0.236915 14.7695C0.161821 14.8443 0.102238 14.9332 0.0615829 15.0312C0.0209277 15.1291 0 15.234 0 15.3401C0 15.4461 0.0209277 15.551 0.0615829 15.649C0.102238 15.7469 0.161821 15.8358 0.236915 15.9106L3.42334 19.0991C3.58268 19.2506 3.79416 19.3351 4.01404 19.3351C4.23393 19.3351 4.4454 19.2506 4.60474 19.0991L5.65861 18.0459L10.505 13.1981C10.6555 13.048 10.7405 12.8446 10.7416 12.6321C10.7428 12.4197 10.6599 12.2153 10.5111 12.0637L9.37129 10.9226ZM4.29597 22.556C2.51782 22.556 1.03436 23.9992 1.03436 25.778C1.03436 27.5568 2.51917 29 4.29597 29C5.1505 29 5.97002 28.6605 6.57427 28.0563C7.17851 27.4521 7.51797 26.6325 7.51797 25.778C7.51797 24.9235 7.17851 24.1039 6.57427 23.4997C5.97002 22.8955 5.1505 22.556 4.29597 22.556ZM33.294 23.63H13.962C13.6771 23.63 13.404 23.7431 13.2025 23.9446C13.0011 24.146 12.888 24.4192 12.888 24.704V26.852C12.888 27.1368 13.0011 27.41 13.2025 27.6114C13.404 27.8128 13.6771 27.926 13.962 27.926H33.294C33.5788 27.926 33.852 27.8128 34.0534 27.6114C34.2548 27.41 34.368 27.1368 34.368 26.852V24.704C34.368 24.4192 34.2548 24.146 34.0534 23.9446C33.852 23.7431 33.5788 23.63 33.294 23.63ZM33.294 2.14998H13.962C13.6771 2.14998 13.404 2.26313 13.2025 2.46455C13.0011 2.66596 12.888 2.93914 12.888 3.22398V5.37198C12.888 5.65682 13.0011 5.93 13.2025 6.13141C13.404 6.33283 13.6771 6.44598 13.962 6.44598H33.294C33.5788 6.44598 33.852 6.33283 34.0534 6.13141C34.2548 5.93 34.368 5.65682 34.368 5.37198V3.22398C34.368 2.93914 34.2548 2.66596 34.0534 2.46455C33.852 2.26313 33.5788 2.14998 33.294 2.14998ZM33.294 12.89H13.962C13.6771 12.89 13.404 13.0031 13.2025 13.2046C13.0011 13.406 12.888 13.6791 12.888 13.964V16.112C12.888 16.3968 13.0011 16.67 13.2025 16.8714C13.404 17.0728 13.6771 17.186 13.962 17.186H33.294C33.5788 17.186 33.852 17.0728 34.0534 16.8714C34.2548 16.67 34.368 16.3968 34.368 16.112V13.964C34.368 13.6791 34.2548 13.406 34.0534 13.2046C33.852 13.0031 33.5788 12.89 33.294 12.89Z" fill="white"/>
</svg>
