<svg width="37" height="22" viewBox="0 0 37 22" fill="none" xmlns="http://www.w3.org/2000/svg">
<path d="M29.7458 3.66094L27.0187 0.933854C26.4152 0.335627 25.5998 -6.6378e-06 24.75 0H11.7562C10.9083 0 10.0891 0.338021 9.4875 0.933854L6.76042 3.66094H0V18.3104H3.66667C4.675 18.3104 5.48854 17.4969 5.49427 16.4943H6.01562L10.8625 20.8714C12.6328 22.3094 15.0906 22.3438 16.9125 21.0891C17.6286 21.7078 18.4021 22 19.2672 22C20.3099 22 21.2896 21.576 22.063 20.625C23.3292 21.1234 24.8245 20.774 25.7297 19.6625L27.2307 17.812C27.5516 17.4167 27.7521 16.9641 27.8552 16.4943H31.1724C31.1781 17.4969 31.9974 18.3104 33 18.3104H36.6667V3.66094H29.7458ZM2.75 16.4771C2.24583 16.4771 1.83333 16.0646 1.83333 15.5604C1.83333 15.0563 2.24583 14.6438 2.75 14.6438C3.25417 14.6438 3.66667 15.0563 3.66667 15.5604C3.66667 16.0703 3.25417 16.4771 2.75 16.4771ZM25.0937 16.0818L23.5984 17.9266C23.438 18.1214 23.1516 18.1557 22.951 17.9953L21.5818 16.8839L19.863 18.975C19.5193 19.3932 19.0036 19.25 18.8318 19.1125L16.7234 17.3078L15.8297 18.4078C15.0333 19.3875 13.5839 19.5365 12.6615 18.7859L7.08698 13.7443H5.5V6.40521H7.90052L11.4354 2.87604C11.55 2.83021 11.6474 2.7901 11.762 2.74427H15.0104L12.7932 4.77812C11.1089 6.31927 11.0115 8.92031 12.5411 10.5818C13.3891 11.5099 16.0474 12.9422 18.3562 10.8339L18.826 10.4042L25.025 15.4344C25.2198 15.5948 25.2484 15.887 25.0937 16.0818ZM31.1667 13.7443H27.2021C27.0703 13.5839 26.9214 13.4349 26.7609 13.3031L20.8771 8.525L21.5932 7.87187C21.9656 7.52812 21.9943 6.94948 21.6505 6.57708L21.026 5.90677C20.6823 5.53438 20.1036 5.51146 19.7312 5.84948L16.5688 8.74844C16.0245 9.24687 15.0964 9.28698 14.5865 8.74844C14.0536 8.18125 14.0995 7.31042 14.6552 6.80625L18.4135 3.36302C18.8375 2.97344 19.3875 2.76146 19.9604 2.76146L24.7557 2.75C24.876 2.75 24.9906 2.79583 25.0708 2.88177L28.6057 6.41094H31.1667V13.7443ZM33.9167 16.4771C33.4125 16.4771 33 16.0646 33 15.5604C33 15.0563 33.4125 14.6438 33.9167 14.6438C34.4208 14.6438 34.8333 15.0563 34.8333 15.5604C34.8333 16.0703 34.4208 16.4771 33.9167 16.4771Z" fill="white"/>
</svg>
