<svg width="33" height="33" viewBox="0 0 33 33" fill="none" xmlns="http://www.w3.org/2000/svg">
<path d="M16.5 33C25.6127 33 33 25.6127 33 16.5C33 7.38728 25.6127 0 16.5 0C7.38728 0 0 7.38728 0 16.5C0 25.6127 7.38728 33 16.5 33ZM9.6207 27.8956L13.1743 24.3421C15.2904 25.2407 17.707 25.2417 19.8257 24.3421L23.3793 27.8956C19.1733 30.4451 13.8267 30.4451 9.6207 27.8956ZM21.8226 16.5C21.8226 19.4349 19.4349 21.8226 16.5 21.8226C13.5651 21.8226 11.1774 19.4349 11.1774 16.5C11.1774 13.5651 13.5651 11.1774 16.5 11.1774C19.4349 11.1774 21.8226 13.5651 21.8226 16.5ZM27.8956 23.3793L24.3421 19.8257C25.2406 17.7096 25.2417 15.293 24.3421 13.1743L27.8956 9.6207C30.4451 13.8267 30.4451 19.1733 27.8956 23.3793ZM23.3792 5.10436L19.8257 8.65791C17.7096 7.75939 15.293 7.75826 13.1743 8.65791L9.6207 5.10436C13.8267 2.55491 19.1733 2.55491 23.3792 5.10436ZM5.10436 9.6207L8.65791 13.1743C7.75933 15.2904 7.75826 17.707 8.65791 19.8257L5.10436 23.3793C2.55491 19.1733 2.55491 13.8267 5.10436 9.6207Z" fill="white"/>
</svg>
