<svg width="33" height="34" viewBox="0 0 33 34" fill="none" xmlns="http://www.w3.org/2000/svg">
<path d="M32.1324 21.0855L29.2122 19.3992C29.507 17.8089 29.507 16.1774 29.2122 14.5871L32.1324 12.9008C32.4682 12.7089 32.619 12.3113 32.5094 11.9411C31.7485 9.50084 30.4529 7.29358 28.7598 5.4565C28.4993 5.17545 28.0743 5.1069 27.7453 5.29883L24.8251 6.98512C23.5981 5.92948 22.186 5.11375 20.6574 4.57908V1.21337C20.6574 0.829496 20.3901 0.493611 20.013 0.411353C17.4973 -0.150742 14.9199 -0.123322 12.5276 0.411353C12.1506 0.493611 11.8832 0.829496 11.8832 1.21337V4.58593C10.3615 5.12746 8.94938 5.94319 7.71551 6.99197L4.80222 5.30569C4.46633 5.11375 4.04819 5.17545 3.7877 5.46335C2.09456 7.29359 0.799005 9.50083 0.0381209 11.948C-0.0784109 12.3182 0.0792498 12.7157 0.415136 12.9077L3.33529 14.594C3.04053 16.1843 3.04053 17.8157 3.33529 19.406L0.415136 21.0923C0.0792498 21.2843 -0.0715561 21.6818 0.0381209 22.052C0.799005 24.4923 2.09456 26.6996 3.7877 28.5366C4.04819 28.8177 4.47318 28.8862 4.80222 28.6943L7.72237 27.008C8.94938 28.0637 10.3615 28.8794 11.8901 29.4141V32.7866C11.8901 33.1705 12.1574 33.5064 12.5344 33.5886C15.0502 34.1507 17.6276 34.1233 20.0199 33.5886C20.3969 33.5064 20.6643 33.1705 20.6643 32.7866V29.4141C22.186 28.8725 23.5981 28.0568 24.832 27.008L27.7521 28.6943C28.088 28.8862 28.5062 28.8246 28.7666 28.5366C30.4598 26.7064 31.7553 24.4992 32.5162 22.052C32.619 21.675 32.4682 21.2774 32.1324 21.0855ZM16.2703 22.477C13.2473 22.477 10.7865 20.0161 10.7865 16.9931C10.7865 13.9702 13.2473 11.5093 16.2703 11.5093C19.2933 11.5093 21.7542 13.9702 21.7542 16.9931C21.7542 20.0161 19.2933 22.477 16.2703 22.477Z" fill="white"/>
</svg>
