<svg width="33" height="26" viewBox="0 0 33 26" fill="none" xmlns="http://www.w3.org/2000/svg">
<path d="M19.5 16.25H13C12.1027 16.25 11.375 16.9777 11.375 17.875V24.375C11.375 25.2723 12.1027 26 13 26H19.5C20.3973 26 21.125 25.2723 21.125 24.375V17.875C21.125 16.9777 20.3973 16.25 19.5 16.25ZM9.75 1.625C9.75 0.727695 9.0223 0 8.125 0H1.625C0.727695 0 0 0.727695 0 1.625V8.125C0 9.0223 0.727695 9.75 1.625 9.75H6.48578L10.2009 16.252C10.7646 15.2841 11.8016 14.625 13 14.625H13.0142L9.75 8.91262V6.5H21.125V3.25H9.75V1.625ZM30.875 0H24.375C23.4777 0 22.75 0.727695 22.75 1.625V8.125C22.75 9.0223 23.4777 9.75 24.375 9.75H30.875C31.7723 9.75 32.5 9.0223 32.5 8.125V1.625C32.5 0.727695 31.7723 0 30.875 0Z" fill="white"/>
</svg>
