<svg width="18" height="30" viewBox="0 0 22 30" fill="none">
<path d="M14.1667 3.75V4.25H14.6667H19.25C20.4816 4.25 21.5 5.27526 21.5 6.5625V27.1875C21.5 28.4747 20.4816 29.5 19.25 29.5H2.75C1.51845 29.5 0.5 28.4747 0.5 27.1875V6.5625C0.5 5.27526 1.51845 4.25 2.75 4.25H7.33333H7.83333V3.75C7.83333 1.94713 9.26428 0.5 11 0.5C12.7357 0.5 14.1667 1.94713 14.1667 3.75ZM18.2998 16.2768L18.3013 16.2753C18.7573 15.8089 18.7682 15.0618 18.3106 14.5839L18.3082 14.5814L16.6926 12.9173L16.6914 12.9161C16.2318 12.4461 15.4743 12.4286 15.0033 12.9093C15.003 12.9096 15.0027 12.9099 15.0024 12.9102L9.28988 18.7084L7.01058 16.3571L7.00907 16.3555C6.54944 15.8854 5.79172 15.8681 5.32075 16.349C5.32053 16.3492 5.32032 16.3494 5.3201 16.3497L3.69425 18.0007L3.69302 18.002C3.23916 18.4662 3.22288 19.2216 3.68666 19.6966C3.68687 19.6968 3.68708 19.697 3.68729 19.6972L8.41811 24.5766L8.41958 24.5781C8.87921 25.0482 9.63695 25.0655 10.1079 24.5846C10.1081 24.5844 10.1083 24.5841 10.1085 24.5839L18.2998 16.2768ZM12.875 3.75C12.875 2.70521 12.0487 1.84375 11 1.84375C9.95135 1.84375 9.125 2.70521 9.125 3.75C9.125 4.79479 9.95135 5.65625 11 5.65625C12.0487 5.65625 12.875 4.79479 12.875 3.75Z" 
fill="white" 
stroke="white"/>
</svg>